PathFileType	4	(X/Y/Z)	/Users/itak/Documents/Research/Walk-IL/dataset/trc/00437_00167.trc
DataRate	CameraRate	NumFrames	NumMarkers	Units	OrigDataRate	OrigDataStartFrame	OrigNumFrames
100.000000	100.000000	4	53	mm	100.000000	207	553
Frame#	Time	RPSI			LPSI			L3			STRN			T10			C7			CLAV			RBAK			LBAK			LSHO			LUPA			LAEL			LAOL			LWTS			LWPS			LFRA			LIFD			LHPS			LHTS			RSHO			RUPA			RAEL			RAOL			RWTS			RWPS			RFRA			RIFD			RHTS			RHPS			RBHD			LFHD			RFHD			LBHD			LHIP			RHIP			RASI			LASI			LKNE			LTHI			LANK			LTIP			LTOE			LMT1			LMT5			LHEE			RKNE			RTHI			RANK			RTIP			RTOE			RMT1			RMT5			RHEE			
		X1	Y1	Z1	X2	Y2	Z2	X3	Y3	Z3	X4	Y4	Z4	X5	Y5	Z5	X6	Y6	Z6	X7	Y7	Z7	X8	Y8	Z8	X9	Y9	Z9	X10	Y10	Z10	X11	Y11	Z11	X12	Y12	Z12	X13	Y13	Z13	X14	Y14	Z14	X15	Y15	Z15	X16	Y16	Z16	X17	Y17	Z17	X18	Y18	Z18	X19	Y19	Z19	X20	Y20	Z20	X21	Y21	Z21	X22	Y22	Z22	X23	Y23	Z23	X24	Y24	Z24	X25	Y25	Z25	X26	Y26	Z26	X27	Y27	Z27	X28	Y28	Z28	X29	Y29	Z29	X30	Y30	Z30	X31	Y31	Z31	X32	Y32	Z32	X33	Y33	Z33	X34	Y34	Z34	X35	Y35	Z35	X36	Y36	Z36	X37	Y37	Z37	X38	Y38	Z38	X39	Y39	Z39	X40	Y40	Z40	X41	Y41	Z41	X42	Y42	Z42	X43	Y43	Z43	X44	Y44	Z44	X45	Y45	Z45	X46	Y46	Z46	X47	Y47	Z47	X48	Y48	Z48	X49	Y49	Z49	X50	Y50	Z50	X51	Y51	Z51	X52	Y52	Z52	X53	Y53	Z53	

208	2.07	-782.4771728515625	911.3143310546875	-190.4047546386719	-716.2091674804688	919.0660400390625	-315.8872985839844	-737.0322265625	1018.230346679688	-233.2957458496094	-484.7931823730469	1190.462158203125	-88.303466796875	-742.952880859375	1141.237426757812	-237.5389862060547	-681.3134155273438	1399.531860351562	-171.3935852050781	-514.5174560546875	1306.348388671875	-98.78005218505859	-784.2484130859375	1277.833984375	-132.5476837158203	-661.5204467773438	1364.55224609375	-278.00537109375	-530.0623779296875	1379.819458007812	-291.4447326660156	-497.4114379882812	1272.18701171875	-394.9826965332031	-472.0289306640625	1064.015502929688	-447.8346557617188	-574.658203125	1052.470581054688	-436.1276245117188	-430.0276489257812	853.7821044921875	-391.5894775390625	-440.0752868652344	845.458984375	-464.6676025390625	-450.9234008789062	976.429443359375	-455.7061767578125	-435.5262451171875	685.1396484375	-406.7970275878906	-439.65234375	763.3964233398438	-466.8771057128906	-417.4874877929688	762.92626953125	-399.4021301269531	-701.0165405273438	1352.27001953125	0.1086387857794762	-758.58544921875	1288.154541015625	48.30987548828125	-818.9694213867188	1003.647583007812	58.57508087158203	-843.5848388671875	1001.948547363281	-5.064018726348877	-748.6453247070312	784.5256958007812	36.75246429443359	-835.9622802734375	784.151123046875	51.11988067626953	-831.2518310546875	945.8049926757812	59.15194702148438	-784.3975830078125	630.9503784179688	11.74814033508301	-763.1287841796875	683.696044921875	34.72773361206055	-837.5694580078125	696.2196044921875	41.01121520996094	-671.3890991210938	1582.889892578125	-60.80256652832031	-478.2694396972656	1621.792846679688	-124.0519027709961	-546.5426025390625	1617.876220703125	-12.53150939941406	-592.1801147460938	1591.259643554688	-220.6142120361328	-554.0659790039062	810.2199096679688	-372.1023559570312	-720.0313720703125	816.4330444335938	-5.758913516998291	-608.5150756835938	865.5029907226562	-29.97108459472656	-493.0348510742188	841.8273315429688	-256.1673278808594	-630.2640380859375	398.356689453125	-407.33935546875	-564.7739868164062	542.6748046875	-377.9201049804688	-955.4708862304688	156.0581817626953	-574.13623046875	-734.6890258789062	295.4046936035156	-477.8728637695312	-892.9163818359375	37.10438537597656	-414.0484619140625	-933.7060546875	76.15279388427734	-422.7872619628906	-886.053466796875	49.869384765625	-519.3630981445312	-993.0167846679688	214.9329376220703	-553.5948486328125	-536.0016479492188	458.6313171386719	35.62125778198242	-643.088623046875	699.7037353515625	38.74049377441406	-583.3802490234375	43.72491455078125	-10.03778648376465	-541.1023559570312	311.1066589355469	38.739501953125	-371.1779174804688	46.94054794311523	46.32964324951172	-410.717041015625	51.02743530273438	-13.96653461456299	-477.2669067382812	46.88584899902344	73.47340393066406	-621.3095092773438	34.86980438232422	-80.84335327148438	
209	2.08	-774.3709106445312	913.9882202148438	-183.4983520507812	-708.1793823242188	920.5311889648438	-309.1478271484375	-729.054931640625	1020.99072265625	-225.4678649902344	-476.3918762207031	1193.367431640625	-81.29879760742188	-735.0738525390625	1143.753173828125	-229.3885345458984	-673.8283081054688	1402.151611328125	-163.5662078857422	-506.3529968261719	1309.235961914062	-91.79932403564453	-776.2977905273438	1280.337768554688	-123.6998672485352	-654.4815673828125	1367.298950195312	-270.28466796875	-523.0877685546875	1382.978637695312	-284.2230529785156	-490.295166015625	1275.727294921875	-387.9771728515625	-463.963134765625	1067.867309570312	-441.2937927246094	-566.3804321289062	1055.727783203125	-429.5949096679688	-420.3437805175781	858.0946044921875	-384.929443359375	-430.3532409667969	849.5418090820312	-457.949951171875	-442.201416015625	980.4598999023438	-449.0664367675781	-424.5257873535156	689.3797607421875	-399.5686950683594	-429.2963562011719	767.4111938476562	-459.9513549804688	-407.0620727539062	767.3276977539062	-392.4901123046875	-692.1950073242188	1354.981689453125	8.153311729431152	-748.7669067382812	1290.677368164062	57.34716415405273	-805.2942504882812	1005.26318359375	69.94690704345703	-830.9645385742188	1002.893981933594	6.841940879821777	-732.3644409179688	786.9879760742188	48.45422744750977	-819.5068359375	785.4710693359375	64.09551239013672	-816.8287353515625	947.30322265625	71.05905151367188	-766.3661499023438	632.7618408203125	24.71261024475098	-745.4467163085938	685.9011840820312	47.10353469848633	-819.9677124023438	697.4285278320312	54.41193008422852	-663.6100463867188	1585.661865234375	-53.16170501708984	-470.3944702148438	1624.33740234375	-116.4418640136719	-538.6137084960938	1620.365478515625	-4.873847484588623	-584.4833984375	1594.208984375	-212.9989624023438	-544.9318237304688	811.4908447265625	-363.9797058105469	-712.4976196289062	818.1353149414062	0.8516111969947815	-600.6397705078125	867.0635375976562	-22.66547584533691	-484.5072021484375	844.5606079101562	-248.3851623535156	-609.4122314453125	397.881591796875	-397.4772338867188	-547.447998046875	543.3466186523438	-368.7622375488281	-940.7837524414062	167.4843597412109	-567.2711791992188	-716.0782470703125	297.5557250976562	-468.8863830566406	-888.589599609375	35.5450325012207	-411.9879760742188	-924.4664306640625	80.43447875976562	-418.497314453125	-878.7467651367188	53.74002838134766	-515.841552734375	-975.6407470703125	227.2371215820312	-544.7210693359375	-532.401611328125	457.763427734375	38.24305725097656	-636.5112915039062	700.1365966796875	44.0647087097168	-583.34814453125	43.74356460571289	-10.04999542236328	-538.7265014648438	310.2287292480469	40.31905364990234	-371.1282653808594	47.08171081542969	46.15798187255859	-410.6866455078125	51.01255798339844	-14.04339218139648	-477.1877746582031	46.9776496887207	73.40100860595703	-621.3228149414062	34.88002777099609	-80.83697509765625	
210	2.09	-766.4378662109375	916.7506713867188	-176.8310546875	-700.3272094726562	922.0399780273438	-302.6511840820312	-721.2470703125	1023.766662597656	-217.8773498535156	-468.1291809082031	1196.225830078125	-74.56497955322266	-727.347900390625	1146.321411132812	-221.4824066162109	-666.36572265625	1404.823852539062	-155.9193725585938	-498.2284240722656	1312.101440429688	-85.05815124511719	-768.4096069335938	1282.91845703125	-115.052131652832	-647.50390625	1370.093505859375	-262.7497863769531	-516.1849365234375	1386.144775390625	-277.2283325195312	-483.3153381347656	1279.234008789062	-381.1991271972656	-456.05859375	1071.695190429688	-434.9629516601562	-558.2427368164062	1058.914428710938	-423.1635131835938	-410.6467895507812	862.479736328125	-378.468994140625	-420.7405090332031	853.6428833007812	-451.4049072265625	-433.6226196289062	984.4847412109375	-442.6330261230469	-413.2915649414062	693.7050170898438	-392.4723205566406	-418.9299621582031	771.4638671875	-453.1753540039062	-396.489990234375	771.8411865234375	-385.7724609375	-683.3750610351562	1357.7373046875	15.99058055877686	-738.8959350585938	1293.265502929688	66.20645904541016	-791.3922119140625	1007.037780761719	81.40016937255859	-818.172607421875	1003.914123535156	18.85444831848145	-715.7938842773438	789.6719360351562	60.39921188354492	-802.7214965820312	787.0113525390625	77.3546142578125	-802.1398315429688	948.9701538085938	83.09808349609375	-748.0050659179688	634.775634765625	38.13076019287109	-727.4501342773438	688.3328247070312	59.85385894775391	-802.0191650390625	698.8678588867188	68.2242431640625	-655.8622436523438	1588.438598632812	-45.71041488647461	-462.5506591796875	1626.918212890625	-108.9708862304688	-530.7306518554688	1622.8759765625	2.62148904800415	-576.7777099609375	1597.171630859375	-205.5478210449219	-535.9302368164062	812.7848510742188	-355.9920349121094	-705.2756958007812	819.9498291015625	7.221195697784424	-592.988525390625	868.6781005859375	-15.53816890716553	-476.0974426269531	847.31103515625	-240.7702941894531	-588.0867309570312	397.6435546875	-387.0535888671875	-529.8544921875	544.2318725585938	-359.4147033691406	-924.7858276367188	178.7304077148438	-559.3531494140625	-696.7647705078125	299.7072143554688	-459.075927734375	-882.4671630859375	34.10866546630859	-409.0966796875	-913.40380859375	85.00482940673828	-413.1936645507812	-869.5847778320312	58.24523162841797	-511.3870239257812	-957.4758911132812	238.9121704101562	-534.884765625	-529.37646484375	456.9940185546875	40.65032577514648	-630.3596801757812	700.69580078125	49.17832183837891	-583.342041015625	43.72414016723633	-10.04721355438232	-536.7868041992188	309.451171875	41.78370666503906	-371.1236572265625	47.19065856933594	46.02487564086914	-410.685546875	51.00338745117188	-14.08203887939453	-477.1511535644531	47.01342010498047	73.37244415283203	-621.3554077148438	34.88466262817383	-80.82498931884766	
211	2.1	-758.6588134765625	919.58056640625	-170.4147033691406	-692.6002807617188	923.6024780273438	-296.3916320800781	-713.6041870117188	1026.537109375	-210.5404357910156	-460.0209655761719	1199.020629882812	-68.10643768310547	-719.7669067382812	1148.93603515625	-213.8314514160156	-658.9166870117188	1407.537475585938	-148.4526672363281	-490.1482849121094	1314.928100585938	-78.55015563964844	-760.5859985351562	1285.56787109375	-106.6228713989258	-640.5712890625	1372.92138671875	-255.3988494873047	-509.3321228027344	1389.2978515625	-270.4526062011719	-476.4632568359375	1282.687744140625	-374.6495056152344	-448.3403625488281	1075.477661132812	-428.8548889160156	-550.2747802734375	1062.013916015625	-416.8277893066406	-400.9624633789062	866.91455078125	-372.2374267578125	-411.2958068847656	857.7310791015625	-445.0572204589844	-425.2242126464844	988.4763793945312	-436.4292297363281	-401.8652954101562	698.0993041992188	-385.5353393554688	-408.6192321777344	775.52978515625	-446.5710754394531	-385.8072509765625	776.4473266601562	-379.288818359375	-674.5613403320312	1360.517944335938	23.61388778686523	-728.9884643554688	1295.90087890625	74.86555480957031	-777.3079833984375	1008.972290039062	92.8975830078125	-805.2156372070312	1005.000183105469	30.9323616027832	-698.9544067382812	792.5877685546875	72.57225036621094	-785.6319580078125	788.7857666015625	90.85500335693359	-787.2244262695312	950.8072509765625	95.22689819335938	-729.3173217773438	637.0081176757812	52.00458526611328	-709.15185546875	691.01025390625	72.9761962890625	-783.7412719726562	700.5568237304688	82.41819000244141	-648.135986328125	1591.201538085938	-38.4504508972168	-454.7349853515625	1629.52587890625	-101.6458206176758	-522.8894653320312	1625.397583007812	9.947493553161621	-569.0559692382812	1600.124145507812	-198.2660064697266	-527.0198974609375	814.1492919921875	-348.1610107421875	-698.3572387695312	821.8587646484375	13.34180641174316	-585.557861328125	870.3403930664062	-8.586180686950684	-467.7901916503906	850.0813598632812	-233.3175048828125	-566.4384155273438	397.7640686035156	-376.1070861816406	-512.0897827148438	545.423583984375	-349.9004516601562	-907.612060546875	189.4878845214844	-550.3583374023438	-676.8787231445312	301.9322204589844	-448.4942016601562	-874.0860595703125	32.95599746704102	-405.1722106933594	-900.3363037109375	89.71629333496094	-406.7509460449219	-858.3370971679688	63.25332260131836	-505.8492431640625	-938.7146606445312	249.7026214599609	-524.12451171875	-526.9159545898438	456.3245849609375	42.88230895996094	-624.6436157226562	701.361572265625	54.0828971862793	-583.3590698242188	43.6697998046875	-10.02795791625977	-535.2754516601562	308.7738952636719	43.16347122192383	-371.1578674316406	47.26503372192383	45.92914962768555	-410.7101135253906	51.00784683227539	-14.07980918884277	-477.1574401855469	46.99433517456055	73.39566802978516	-621.400390625	34.88484191894531	-80.80986785888672	
